<svg xmlns="http://www.w3.org/2000/svg" width="512" height="512" viewBox="0 0 53 58"><g fill-rule="nonzero" fill="none"><path d="M18.72 50.3c3.429 1.551 4.932 7.7 4.932 7.7l25.094-.069a24.576 24.576 0 0 0-1.6-2.827 20.662 20.662 0 0 1-1.187-3.004 34.458 34.458 0 0 1-1.216-6.088 17.974 17.974 0 0 1 1.384-9.3c1.127-2.57 3.084-4.606 4.576-6.959a14.432 14.432 0 0 0 2.297-7.7 29.069 29.069 0 0 0-1.008-8.2 15.494 15.494 0 0 0-5.634-8.085C41.4 1.88 36.342-.294 29.938.032A65.9 65.9 0 0 0 20.41 1.4c-3.418.688-7.037 1.966-9.49 4.556a18.087 18.087 0 0 0-3.8 6.2 28.686 28.686 0 0 0-.952 3.5 30.9 30.9 0 0 1-1.479 3.785 2.47 2.47 0 0 0-.215 1.191c.192 1.384 2.268 1.979 2.285 3.406a1.99 1.99 0 0 1-.283.891 39.165 39.165 0 0 1-4.454 7.249c-.412.505-1.248 1.5-1.144 2.214.074.507.682.928 1.057 1.207.8.594 2.429 1 2.632 2.072a2.7 2.7 0 0 1-.189 1.618c-.553 1.167-1.166 1.789-.731 2.155.435.366 1.6 1.245 1.6 1.245s-1.107 1.414-.494 1.848c.76.54 1.728.789 1.986 1.8a6.19 6.19 0 0 1-.236 2.38 4.88 4.88 0 0 0 .288 2.225A2.727 2.727 0 0 0 10 52.93a83.974 83.974 0 0 0 8.72-2.63" fill="#35495E"/><path d="M39.672 42.45a3.04 3.04 0 0 1-2.813-1.889c-.272-.659-1.245-1.6-3.059-2.961-2.936-2.2-3.683-6.135-2-10.527l.6-1.551L49.123 28.6l-3.274 3.28h-.016C44.355 33.383 43 35.126 43 37a10.616 10.616 0 0 1-.523 3.444 2.931 2.931 0 0 1-2.8 2.006h-.005z" fill="#2C3E50"/><path d="M40.8 32.858a10.908 10.908 0 0 1-3.52-.575 11.848 11.848 0 0 1-2.307-1.069 25.577 25.577 0 0 1-4.809-3.964 5.673 5.673 0 0 0-2.664-1.52 8.924 8.924 0 0 0-1.607-.223 12.09 12.09 0 0 0-.649-.016c-2.225.087-4.442.32-6.637.7l-1.361.2a13.2 13.2 0 0 1-1.8.13c-.189 0-.373 0-.55-.014a8.014 8.014 0 0 1-2.589-.494 6.767 6.767 0 0 1-4.328-5.727l-.021-.142a10.341 10.341 0 0 1-.064-2.291c.025-.574.097-1.145.218-1.707.026-.114.417-1.776.722-2.784.07-.225.117-.375.164-.505a20.04 20.04 0 0 1 .744-1.737 15.7 15.7 0 0 1 2.635-3.8 11.739 11.739 0 0 1 3.817-2.56c.71-.312 1.439-.579 2.182-.8.785-.235 1.6-.439 2.432-.605.925-.191 1.894-.375 2.874-.548a50.984 50.984 0 0 1 1.876-.309 53.876 53.876 0 0 1 2.221-.289c.722-.076 1.42-.139 2.119-.171.043 0 .1-.008.161-.011A26.4 26.4 0 0 1 31.21 2c.3 0 .591.011.875.021.743.025 1.484.096 2.218.212a19.56 19.56 0 0 1 6.216 2.085c.527.27 1.039.562 1.545.885.71.428 1.492.961 2.343 1.6.238.175.472.355.716.547a13.1 13.1 0 0 1 1.291 1.12 12.818 12.818 0 0 1 3.651 5.93c.4 1.442.668 2.917.8 4.408.071.773.11 1.478.12 2.165C51 21.29 51 21.64 51 22c-.003.416-.031.831-.083 1.244a10.8 10.8 0 0 1-.486 2.38 12.527 12.527 0 0 1-1.41 3.053 9.444 9.444 0 0 1-4.583 3.66c-1.185.335-2.41.51-3.641.521h.003z" fill="#2C3E50"/><path d="M33.67 27.79c-.66 1.72-1.78 5.88 1.33 8.21 2.328 1.746 3.3 2.815 3.708 3.8a1 1 0 0 0 1.877 0c.293-.904.433-1.85.415-2.8 0-2.88 2.08-5.25 3.99-7.1.01 0 .02-.01.03-.02l-11.35-2.09z" fill="#DF4D60"/><path d="M48.99 21c-.01-.68-.05-1.35-.11-2a22.693 22.693 0 0 0-.74-4.06A10.83 10.83 0 0 0 45 9.88a11.6 11.6 0 0 0-1.11-.96c-.23-.18-.45-.35-.68-.52-.75-.56-1.49-1.07-2.22-1.51-.47-.3-.93-.56-1.4-.8A17.588 17.588 0 0 0 34 4.21a16.163 16.163 0 0 0-1.99-.19c-.26-.01-.53-.02-.8-.02-.35 0-.71.01-1.07.03-.05 0-.1.01-.15.01-.66.03-1.32.09-1.99.16-.72.08-1.43.17-2.15.28-.61.09-1.22.19-1.82.3-.96.17-1.91.35-2.83.54-.8.16-1.55.35-2.25.56-.664.197-1.315.434-1.95.71a9.737 9.737 0 0 0-3.18 2.11 13.589 13.589 0 0 0-2.29 3.3c-.24.49-.46 1.01-.66 1.54-.04.11-.08.24-.13.4-.29.96-.68 2.62-.68 2.62a8.7 8.7 0 0 0-.18 1.45 8.283 8.283 0 0 0 .07 1.98V20A4.807 4.807 0 0 0 13 24.14c.638.234 1.31.359 1.99.37.658.028 1.318-.005 1.97-.1 2.982-.56 6.006-.86 9.04-.9.667.033 1.33.127 1.98.28a7.639 7.639 0 0 1 3.58 2.03A24.107 24.107 0 0 0 36 29.5a9.523 9.523 0 0 0 7.9.91 7.522 7.522 0 0 0 3.43-2.8c.517-.811.92-1.69 1.2-2.61.21-.646.344-1.313.4-1.99.044-.335.067-.672.07-1.01 0-.34 0-.67-.01-1z" fill="#FB7B76"/><path d="M15 17a3.009 3.009 0 0 1-3 3H9.95v-.01a8.283 8.283 0 0 1-.07-1.98A.487.487 0 0 1 10 18h2a1 1 0 0 0 1-1 1 1 0 0 1 2 0zM15 23v1.41a.34.34 0 0 1-.01.1 6.083 6.083 0 0 1-1.99-.37V23a1 1 0 0 1 2 0zM21 21h-1a3 3 0 0 1-3-3v-1a3 3 0 0 1 3-3h1a1 1 0 0 1 0 2h-1a1 1 0 0 0-1 1v1a1 1 0 0 0 1 1h1a1 1 0 0 1 0 2zM16 13a1 1 0 0 1-1 1h-3.92a.974.974 0 0 1-.34-.06c.05-.16.09-.29.13-.4.2-.53.42-1.05.66-1.54H15a1 1 0 0 1 1 1zM21 11a1 1 0 0 1-1 1 3.009 3.009 0 0 1-3-3V6.59a16.964 16.964 0 0 1 1.95-.71c.032.1.049.205.05.31V9a1 1 0 0 0 1 1 1 1 0 0 1 1 1zM25 19h-1a1 1 0 0 1 0-2h1a1 1 0 0 0 1-1v-2a1 1 0 0 1 2 0v2a3 3 0 0 1-3 3z" fill="#FF5364"/><path d="M30 14a1 1 0 0 1-1-1v-1a1 1 0 0 0-1-1h-2a1 1 0 0 0-1 1v1a1 1 0 0 1-2 0v-1a3 3 0 0 1 3-3h2a3 3 0 0 1 3 3v1a1 1 0 0 1-1 1zM26 5v1a1 1 0 0 1-2 0V5a.78.78 0 0 1 .03-.22c.6-.11 1.21-.21 1.82-.3.1.155.153.336.15.52zM30 4.1V6a1 1 0 0 1-2 0V4.2c.67-.07 1.33-.13 1.99-.16.008.019.012.04.01.06zM36 9a1 1 0 0 1-1 1h-2a1 1 0 0 1-1-1V4.09a.17.17 0 0 1 .01-.07c.667.022 1.331.086 1.99.19V8h1a1 1 0 0 1 1 1zM28 22v1.6a1.108 1.108 0 0 1-.02.19 10.983 10.983 0 0 0-1.98-.28V22a1 1 0 0 1 2 0zM34 22h-1a3 3 0 0 1-3-3v-1a1 1 0 0 1 2 0v1a1 1 0 0 0 1 1h1a1 1 0 0 1 0 2zM38 18h-1a3 3 0 0 1 0-6h1a1 1 0 0 1 0 2h-1a1 1 0 0 0 0 2h1a1 1 0 0 1 0 2zM41 7v3a1 1 0 0 1-2 0V7a1 1 0 0 1 .59-.91c.47.24.93.5 1.4.8A.375.375 0 0 1 41 7zM45 9.88V12a3.009 3.009 0 0 1-3 3 1 1 0 0 1 0-2 1 1 0 0 0 1-1V9.01a1 1 0 0 1 .21-.61c.23.17.45.34.68.52.39.296.76.617 1.11.96zM40 23h-1a1 1 0 0 1 0-2h1a1 1 0 0 0 1-1v-2a1 1 0 0 1 2 0v2a3 3 0 0 1-3 3zM43 26a1 1 0 0 1-1 1h-3a1 1 0 0 0-1 1v2c0 .134-.028.267-.08.39A9.876 9.876 0 0 1 36 29.5V28a3.009 3.009 0 0 1 3-3h3a1 1 0 0 1 1 1zM48.99 21H46a1 1 0 0 1 0-2h2.88c.06.65.1 1.32.11 2zM48.93 23.01a8.781 8.781 0 0 1-.4 1.99H46a1 1 0 0 1 0-2h2.79a.615.615 0 0 1 .14.01z" fill="#FF5364"/></g></svg>